<svg id="Layer_1" xmlns="http://www.w3.org/2000/svg" version="1.1" viewBox="0 0 157 103" width="157" height="103">
  <!-- Generator: Adobe Illustrator 30.0.0, SVG Export Plug-In . SVG Version: 2.1.1 Build 123)  -->
  <defs>
    <style>
      .st0 {
        fill: #00af3f;
      }

      .st1 {
        fill: #fcb033;
      }

      .st2 {
        fill: #70d0f6;
      }

      .st3 {
        fill: #7482bf;
      }

      .st4 {
        fill: #c4acd3;
      }

      .st5 {
        fill: #009ddc;
      }

      .st6 {
        fill: #fff;
      }

      .st7 {
        fill: #9fcf67;
      }

      .st8 {
        fill: #ffd204;
      }

      .st9 {
        fill: #f68233;
      }
      .st10 {
        fill: #005AA5;
      }
    </style>
  </defs>
  <g>
    <g>
      <path class="st10" d="M16.7,91.2h-.8v3.6h-1.5v-9h2.3c1.8,0,2.2,1.1,2.2,2.7s-.4,2.7-2.2,2.7ZM16.6,87h-.7v2.9h.7c.7,0,.9-.5.9-1.5s-.1-1.4-.9-1.4Z" />
      <path class="st10" d="M31.6,92.7c0,1.3-.9,2.2-2.3,2.2s-2.3-.9-2.3-2.2v-4.9c0-1.3.9-2.2,2.3-2.2s2.3.9,2.3,2.2v4.9ZM30.1,87.8c0-.5-.2-.9-.8-.9s-.8.4-.8.9v4.9c0,.5.2.9.8.9s.8-.4.8-.9v-4.9Z" />
      <path class="st10" d="M41.6,93.5h2.3v1.3h-3.7v-9h1.5v7.7Z" />
      <path class="st10" d="M52.9,94.8v-3.7l-1.7-5.3h1.5l1,3.6,1-3.6h1.5l-1.7,5.3v3.7h-1.5Z" />
      <path class="st10" d="M67.1,87.1v7.7h-1.5v-7.7h-1.6v-1.3h4.6v1.3h-1.6Z" />
      <path class="st10" d="M78.4,89.5h1.7v1.3h-1.7v2.7h2.5v1.3h-3.9v-9h3.9v1.3h-2.4v2.4Z" />
      <path class="st10" d="M92,89.1v-1.4c0-.5-.2-.8-.7-.8s-.8.3-.8.9v4.9c0,.5.2.9.8.9s.7-.3.7-.8v-1.5h1.4v1.4c0,1.3-.8,2.2-2.2,2.2s-2.3-.9-2.3-2.2v-4.9c0-1.3.9-2.2,2.3-2.2s2.2.8,2.2,2.2v1.3h-1.4Z" />
      <path class="st10" d="M104.9,94.8v-3.9h-1.6v3.9h-1.5v-9h1.5v3.8h1.6v-3.8h1.5v9h-1.5Z" />
      <path class="st10" d="M118.5,94.8l-2-5.5v5.5h-1.3v-9h1.3l1.9,5.3v-5.3h1.3v9h-1.2Z" />
      <path class="st10" d="M129.9,94.8h-1.5v-9h1.5v9Z" />
      <path class="st10" d="M141.4,89.1v-1.4c0-.5-.2-.8-.7-.8s-.8.3-.8.9v4.9c0,.5.2.9.8.9s.7-.3.7-.8v-1.5h1.4v1.4c0,1.3-.8,2.2-2.2,2.2s-2.3-.9-2.3-2.2v-4.9c0-1.3.9-2.2,2.3-2.2s2.2.8,2.2,2.2v1.3h-1.4Z" />
    </g>
    <g>
      <g>
        <path class="st10" d="M86.6,42.3l9.7,23.6s4.5-9.2,5.2-11c.9,1.9,4.9,11,4.9,11l8.6-23.2c.8-2.2,1.7-3.1,2.9-3.1s2.5.8,2.6,3.4v17.6c0,2.4-.2,2.9-1.7,3.6l.3.9h5.5s.1-.9.1-.9c-.7-.3-.9-.5-1.1-.8-.2-.3-.3-.6-.3-1.2s0-.5,0-1.3c0-8.6,0-14.7,0-16.9,1.3,1.6,10.7,12.5,19,22v-23.2c0-2.6.4-3.1,1.9-3.6l-.2-1h-5.8v.9c.7.3.9.6,1.1.9.2.4.3,1,.4,1.8s0,.6,0,.9c0,0,0,9.4,0,12.6-1.1-1.3-14.9-17.2-14.9-17.2h-13.2s-.1,1.3-.1,1.3c1,.2,1.2.4,1.2,1,0,.3,0,.3-.2,1,0,0-3.9,10.7-5.3,14.5-.7-1.8-2.8-6.8-2.9-7.1.1-.3,2.7-6.6,2.7-6.6.7-1.5,1.4-2.4,2.3-2.7l-.2-1.2h-14.2s-.3,1.2-.3,1.2c.9.5,1.6,1,2.2,2.8,0,0,3,7.6,3.4,8.8-.9,2.1-1.8,4.1-2.4,5.6-.8-1.9-5.5-13.5-5.5-13.5-.3-.8-1-2.4-1-2.7,0-.3,0-.7.9-.9l-.2-1.2h-7.1l-.3,1.1h0c1.4.9,1.7,1.7,2.3,2.9ZM101,41c-.2-.6-.2-1.5,1.3-1.5s1.8.6,1.6,1.4c-.2.6-1.5,3.8-1.5,3.8,0,0-1.2-3.1-1.4-3.7Z" />
        <path class="st10" d="M81.9,42.2c-2.7-2.7-6.6-4.3-10.7-4.3-8.1,0-14.5,6-14.5,13.8,0,3.7,1.4,7.1,3.9,9.6,2.7,2.7,6.5,4.2,10.6,4.2,8.3,0,14.6-5.9,14.6-13.7,0-3.7-1.4-7.1-4-9.6ZM71.2,62.9c-2.3,0-4.4-.9-6-2.5-2.1-2.1-3.2-5.2-3.2-8.8,0-6.5,3.8-11.1,9.2-11.1s4.4.9,6.1,2.6c2.1,2.1,3.2,5.1,3.2,8.6,0,6.4-3.9,11.1-9.3,11.1Z" />
      </g>
      <path class="st10" d="M78.8,12.3c-2.8-2.7-6.6-4.3-10.7-4.3-8.1,0-14.4,6-14.5,13.8,0,3.7,1.4,7.1,3.9,9.6,2.7,2.7,6.5,4.2,10.6,4.2,8.3,0,14.6-5.9,14.6-13.7,0-3.7-1.4-7.1-4-9.6ZM68.1,33c-2.3,0-4.4-.9-6-2.5-2.1-2-3.2-5.2-3.2-8.8,0-6.5,3.8-11.1,9.2-11.1s4.5.9,6.1,2.6c2.1,2.1,3.2,5.1,3.2,8.6,0,6.4-3.9,11.1-9.2,11.1ZM90.8,10.9h1.9c.7,0,2.5,0,3.6,1.2.7.7,1.1,1.6,1.2,2.7s0,.4,0,.7c0,4.9-4.5,5.1-5.4,5.1h-1.3c0-.6,0-9.2,0-9.8ZM101.8,26c-1.1-2.5-3.1-3.7-4.8-4.2.7-.1,1.1-.2,1.8-.5,2.3-1,3.8-3,3.8-5.8,0-.2,0-.4,0-.7-.2-1.8-1.1-3.5-2.6-4.6-1.8-1.3-3.4-1.7-6.8-1.7h-8.6v.9c1.1.4,1.5.9,1.5,3.3v18.4c0,2.4-.7,2.9-1.6,3.2l.2.9h7.7s0-.9,0-.9c-.6-.2-.9-.3-1.1-.6-.3-.4-.4-1-.5-1.7s0-.6,0-.9c0,0,0-6.5,0-8h1.4c1.1,0,3.2,0,4.8,3.4l2,4.9c1.3,3.1,2,4,4.1,4h3.7s.2-.9.2-.9c-.8-.2-1.2-.4-1.7-.9-.6-.7-1.2-2-1.8-3.3l-.7-1.8-1-2.3ZM130.8,30.3c0,.1,0,.3,0,.4,0,.3.4.7.6.9l.3.3-.4.3c-2.9,2.1-7.6,3.4-11.5,3.4s-8-1.4-10.6-4c-2.5-2.5-3.8-5.9-3.8-9.8,0-8,6.1-13.8,14.4-13.8s6.3.8,9.7,2.7l.2.2.2,7h-1c-.9-4.2-4.6-7.2-8.9-7.2s-9.5,4.8-9.5,11.1c0,3.5,1,6.4,3,8.4,1.8,1.8,4.3,2.7,7.1,2.7s3-.3,5.9-1.7c0,0,0,0,.2-.1,0-.9,0-7.9,0-7.9,0-.2,0-.4,0-.6,0-1.2-.6-1.7-1.5-2.1v-.9c.1,0,6.8,0,6.8,0l.3.9c-1.1.6-1.5,1.1-1.5,2.6,0,0,0,7.1,0,7.1ZM135.2,19.5v-6.9c0-2.3-.3-2.9-1.6-3.4l.3-.9h16v4s-.9,0-.9,0c-.3-.7-.5-.9-.8-1.1-.5-.3-1.5-.4-2.3-.4h-5.8c0,.6,0,7.7,0,8.4h3.9c1.3,0,1.7,0,2.2-.3.6-.3.6-.4.9-1h.9c0,.1,0,5.1,0,5.1h-.9c-.1-.3-.6-.8-.9-.9-.4-.2-.9-.3-2.2-.3h-3.9c0,.6,0,9.9,0,10.6h5.9c1.7,0,2.4-.1,3.3-.4.5-.2,1.1-.4,1.5-1l.8.5-.9,3.6h-16.9l-.3-.9c1.2-.5,1.6-1.1,1.6-3.3,0,0,0-8.4,0-9.1v-2.3ZM42.8,41.1h1.9c.7,0,2.4,0,3.6,1.2.7.7,1,1.6,1.2,2.7s0,.4,0,.7c0,4.9-4.5,5.1-5.4,5.1h-1.3c0-.6,0-9.2,0-9.8ZM53.9,56.2c-1.1-2.5-3.1-3.7-4.8-4.2.7-.1,1.1-.2,1.8-.5,2.3-1,3.8-3,3.8-5.8,0-.2,0-.4,0-.7-.2-1.9-1.1-3.5-2.6-4.6-1.8-1.3-3.4-1.7-6.8-1.7h-8.6s0,.9,0,.9c1.2.4,1.6.9,1.6,3.3v18.4c0,2.4-.7,2.9-1.6,3.2l.3,1h7.7v-1c-.5-.2-.8-.3-1-.6-.3-.4-.4-1-.5-1.7s0-.6,0-.9c0,0,0-6.5,0-8h1.4c1.1,0,3.2,0,4.8,3.3l2,4.9c1.3,3.1,2,4,4.1,4h3.7s.2-1,.2-1c-.8-.2-1.2-.4-1.7-.8-.6-.7-1.2-2-1.8-3.3l-.7-1.8-1-2.3ZM27.2,45.3c0,2.6-2,4.3-4.9,4.3h-2.8c0-.6,0-8.3,0-8.8h2.8c1.4,0,2.7.5,3.6,1.4.7.7,1.2,1.7,1.2,2.7s0,.3,0,.4ZM19.8,52h3c2.3,0,4.2.7,5.4,1.9.8.8,1.3,1.9,1.5,3.2s0,.4,0,.6c0,3.3-2.4,5.3-6.3,5.3h-3.6c0-.6,0-10.5,0-11ZM24.2,65.5c2.5,0,3.9-.2,5.4-.9,1.1-.5,2-1.1,2.7-2,1.2-1.4,1.7-2.8,1.7-4.5,0-.2,0-.5,0-.7-.3-3.1-2.3-5.5-5.5-6.5-.4-.1-.6-.2-1-.3.5-.2.9-.4,1.6-.8,1.6-1.1,2.7-3,2.7-5,0-.2,0-.3,0-.5-.2-2.4-2.7-4.9-5.7-5.5-1.1-.2-2-.3-3.7-.3h-8.6v.9c.7.2,1.2.5,1.3,1.9s0,.7,0,1.1v19.4c0,.4-.1.7-.1,1-.1,1.4-.5,1.6-1.3,1.8v.9h10.6ZM54.3,32.1l-.9,3.7h-18l-.3-.9c1.3-.5,1.7-1.1,1.7-3.4,0,0,0-6.7,0-9.2h-3.2c-1.2,0-1.6.9-1.6,2.1,0,0,0,6.6,0,6.6,0,.1,0,.3,0,.4,0,.3.4.7.6.9l.3.3-.5.3c-3.1,2.1-7.9,3.4-12,3.4s-8.3-1.4-11-4c-2.6-2.5-4.1-6.6-4.1-10.5,0-8,6.3-13.8,14.9-13.8s6.5.8,10.1,2.7l.3.2.2,6.8h-1c-.9-3.8-4.8-7-9.3-7s-9.9,4.8-9.8,11.1c0,3.5,1.2,7.1,3.2,9.1,1.9,1.8,4.5,2.7,7.4,2.7s3.1-.3,6.1-1.7c0,0,0,0,.2-.1,0-.9,0-8.6,0-8.6,0-.2,0-.4,0-.6-.1-1.2-.6-1.7-1.6-2.1v-.9h10.6v-6.8c0-2.3-.4-2.9-1.7-3.5l.3-.9h17.1v4.1s-1,0-1,0c-.3-.7-.5-1-.9-1.1-.6-.3-1.6-.4-2.5-.4h-6.2c0,.6,0,7.9,0,8.6h4.1c1.4,0,1.8,0,2.4-.3.6-.3.7-.5.9-1h1c0,.1,0,5.2,0,5.2h-1c-.2-.3-.6-.8-1-.9-.4-.2-1-.3-2.3-.3h-4.1c0,.6,0,10.1,0,10.8h6.3c1.8,0,2.6-.1,3.6-.5.6-.2,1.1-.5,1.6-1.1l.9.5Z" />
    </g>
  </g>
  <g>
    <rect class="st0" x="7.1" y="74.9" width="15.9" height="1.2" />
    <rect class="st7" x="22.9" y="74.9" width="15.9" height="1.2" />
    <rect class="st8" x="38.8" y="74.9" width="15.9" height="1.2" />
    <rect class="st5" x="54.7" y="74.9" width="15.9" height="1.2" />
    <rect class="st2" x="70.6" y="74.9" width="15.9" height="1.2" />
    <rect class="st3" x="86.4" y="74.9" width="15.9" height="1.2" />
    <rect class="st4" x="102.3" y="74.9" width="15.9" height="1.2" />
    <rect class="st1" x="118.2" y="74.9" width="15.9" height="1.2" />
    <rect class="st9" x="134.1" y="74.9" width="15.9" height="1.2" />
  </g>
</svg>